<?xml version="1.0" encoding="utf-8"?>
<!-- Generator: Adobe Illustrator 25.0.0, SVG Export Plug-In . SVG Version: 6.00 Build 0)  -->
<svg version="1.1" xmlns="http://www.w3.org/2000/svg" xmlns:xlink="http://www.w3.org/1999/xlink" x="0px" y="0px"
	 viewBox="0 0 888.89 500" style="enable-background:new 0 0 888.89 500;" xml:space="preserve">
<style type="text/css">
	.st0{fill:url(#SVGID_1_);}
	.st1{clip-path:url(#SVGID_3_);}
	.st2{fill:url(#SVGID_4_);}
	.st3{fill:none;stroke:#FFFFFF;stroke-miterlimit:10;}
	.st4{fill:url(#SVGID_5_);}
	.st5{fill:url(#SVGID_6_);}
	.st6{fill:url(#SVGID_7_);}
	.st7{fill:#FFFFFF;}
	.st8{display:none;fill:none;stroke:#FFFFFF;stroke-miterlimit:10;}
	.st9{fill:url(#SVGID_8_);}
	.st10{fill:url(#SVGID_9_);}
	.st11{fill:#2F2264;}
	.st12{fill:#5286FA;}
	.st13{fill:url(#SVGID_10_);}
	.st14{fill:url(#SVGID_11_);}
	.st15{clip-path:url(#SVGID_13_);fill:#FFFFFF;}
	.st16{fill:#F5DE68;}
	.st17{fill:url(#SVGID_14_);}
	.st18{fill:url(#SVGID_15_);}
	.st19{fill:url(#SVGID_16_);}
	.st20{fill:url(#SVGID_17_);}
	.st21{display:none;}
	.st22{display:inline;fill:none;}
	.st23{display:inline;fill:#FFFFFF;}
	.st24{font-family:'Montserrat-Regular';}
	.st25{font-size:12px;}
	.st26{display:inline;}
	.st27{fill:none;}
	.st28{font-family:'PressStart2P';}
	.st29{font-size:85.5691px;}
	.st30{fill:url(#SVGID_18_);}
	.st31{fill:url(#SVGID_19_);}
	.st32{fill:url(#SVGID_20_);}
	.st33{fill:url(#SVGID_21_);}
	.st34{fill:url(#SVGID_22_);}
	.st35{fill:url(#SVGID_23_);}
	.st36{fill:url(#SVGID_24_);}
	.st37{fill:url(#SVGID_25_);}
	.st38{fill:url(#SVGID_26_);}
	.st39{fill:url(#SVGID_27_);}
	.st40{fill:none;stroke:#1C096E;stroke-width:1.4165;stroke-linecap:round;stroke-linejoin:round;}
	.st41{fill:none;stroke:#FFFFFF;stroke-width:1.4165;stroke-linecap:round;stroke-linejoin:round;}
</style>
<g id="BACKGROUND">
	<radialGradient id="SVGID_1_" cx="456.9057" cy="804.655" r="851.3005" gradientUnits="userSpaceOnUse">
		<stop  offset="0" style="stop-color:#2B007F"/>
		<stop  offset="1" style="stop-color:#040630"/>
	</radialGradient>
	<rect class="st0" width="888.89" height="500"/>
</g>
<g id="OBJECTS">
	<g>
		<g>
			<defs>
				<rect id="SVGID_2_" width="888.89" height="500"/>
			</defs>
			<clipPath id="SVGID_3_">
				<use xlink:href="#SVGID_2_"  style="overflow:visible;"/>
			</clipPath>
			<g class="st1">
				<linearGradient id="SVGID_4_" gradientUnits="userSpaceOnUse" x1="793.9852" y1="574.1138" x2="621.4705" y2="307.4998">
					<stop  offset="0.0363" style="stop-color:#1C096E"/>
					<stop  offset="0.2377" style="stop-color:#2B007F"/>
					<stop  offset="0.3748" style="stop-color:#2E0082"/>
					<stop  offset="0.4943" style="stop-color:#39018A"/>
					<stop  offset="0.6073" style="stop-color:#4B0297"/>
					<stop  offset="0.7162" style="stop-color:#6404AA"/>
					<stop  offset="0.8223" style="stop-color:#8507C2"/>
					<stop  offset="0.9247" style="stop-color:#AC09E0"/>
					<stop  offset="1" style="stop-color:#CE0CF9"/>
				</linearGradient>
				<path class="st2" d="M459.13,538.31c0,0,24.18-118.81,167.42-105.03s55.81-194.16,262.37-194.16v299.19H459.13z"/>
				<path class="st3" d="M490.5,566.83c0,0,24.18-118.81,167.42-105.03c143.24,13.78,55.81-194.16,262.37-194.16v299.19H490.5z"/>
				<linearGradient id="SVGID_5_" gradientUnits="userSpaceOnUse" x1="882.2311" y1="634.8168" x2="709.7164" y2="368.2027">
					<stop  offset="0.0363" style="stop-color:#1C096E"/>
					<stop  offset="0.2377" style="stop-color:#2B007F"/>
					<stop  offset="0.3748" style="stop-color:#2E0082"/>
					<stop  offset="0.4943" style="stop-color:#39018A"/>
					<stop  offset="0.6073" style="stop-color:#4B0297"/>
					<stop  offset="0.7162" style="stop-color:#6404AA"/>
					<stop  offset="0.8223" style="stop-color:#8507C2"/>
					<stop  offset="0.9247" style="stop-color:#AC09E0"/>
					<stop  offset="1" style="stop-color:#CE0CF9"/>
				</linearGradient>
				<path class="st4" d="M547.38,599.02c0,0,24.18-118.81,167.42-105.03s55.81-194.16,262.37-194.16v299.19H547.38z"/>
			</g>
			<g class="st1">
				
					<linearGradient id="SVGID_6_" gradientUnits="userSpaceOnUse" x1="1368.566" y1="574.1138" x2="1196.0514" y2="307.4998" gradientTransform="matrix(-1 0 0 1 1462.6766 0)">
					<stop  offset="0.0363" style="stop-color:#1C096E"/>
					<stop  offset="0.2377" style="stop-color:#2B007F"/>
					<stop  offset="0.3748" style="stop-color:#2E0082"/>
					<stop  offset="0.4943" style="stop-color:#39018A"/>
					<stop  offset="0.6073" style="stop-color:#4B0297"/>
					<stop  offset="0.7162" style="stop-color:#6404AA"/>
					<stop  offset="0.8223" style="stop-color:#8507C2"/>
					<stop  offset="0.9247" style="stop-color:#AC09E0"/>
					<stop  offset="1" style="stop-color:#CE0CF9"/>
				</linearGradient>
				<path class="st5" d="M428.96,538.31c0,0-24.18-118.81-167.42-105.03S205.73,239.13-0.82,239.13v299.19H428.96z"/>
				<path class="st3" d="M397.6,566.83c0,0-24.18-118.81-167.42-105.03C86.94,475.58,174.36,267.64-32.19,267.64v299.19H397.6z"/>
				
					<linearGradient id="SVGID_7_" gradientUnits="userSpaceOnUse" x1="1456.8121" y1="634.8168" x2="1284.2974" y2="368.2027" gradientTransform="matrix(-1 0 0 1 1462.6766 0)">
					<stop  offset="0.0363" style="stop-color:#1C096E"/>
					<stop  offset="0.2377" style="stop-color:#2B007F"/>
					<stop  offset="0.3748" style="stop-color:#2E0082"/>
					<stop  offset="0.4943" style="stop-color:#39018A"/>
					<stop  offset="0.6073" style="stop-color:#4B0297"/>
					<stop  offset="0.7162" style="stop-color:#6404AA"/>
					<stop  offset="0.8223" style="stop-color:#8507C2"/>
					<stop  offset="0.9247" style="stop-color:#AC09E0"/>
					<stop  offset="1" style="stop-color:#CE0CF9"/>
				</linearGradient>
				<path class="st6" d="M340.72,599.02c0,0-24.18-118.81-167.42-105.03S117.49,299.83-89.07,299.83v299.19H340.72z"/>
			</g>
		</g>
	</g>
	<path class="st7" d="M773.69,346.14l1.65,5.08c0.25,0.76,0.96,1.28,1.77,1.28h5.34c1.8,0,2.55,2.3,1.09,3.36l-4.32,3.14
		c-0.65,0.47-0.92,1.31-0.67,2.08l1.65,5.08c0.56,1.71-1.4,3.13-2.86,2.08l-4.32-3.14c-0.65-0.47-1.53-0.47-2.18,0l-4.32,3.14
		c-1.45,1.06-3.41-0.37-2.86-2.08l1.65-5.08c0.25-0.76-0.02-1.6-0.67-2.08l-4.32-3.14c-1.45-1.06-0.71-3.36,1.09-3.36h5.34
		c0.8,0,1.52-0.52,1.77-1.28l1.65-5.08C770.71,344.43,773.13,344.43,773.69,346.14z"/>
	<g>
		<g>
			<path class="st7" d="M754.27,429.19c-0.06,8.43-5.34,16.3-13.34,19.21c-8.18,2.97-17.35,0.48-22.94-6.17
				c-5.51-6.56-6.15-16.25-1.77-23.56c4.36-7.29,13.12-11.26,21.49-9.59C747.27,411,754.19,419.45,754.27,429.19
				c0.02,2.57,4.01,2.57,3.99,0c-0.08-10.3-6.58-19.54-16.27-23.05c-9.49-3.44-20.64-0.38-27.03,7.44
				c-6.47,7.93-7.48,19.31-2.19,28.15c5.32,8.89,15.86,13.46,25.99,11.42c11.28-2.27,19.4-12.55,19.49-23.96
				C758.28,426.62,754.29,426.61,754.27,429.19z"/>
		</g>
	</g>
	<path class="st7" d="M160.9,94.02l-1.65,5.08c-0.25,0.76-0.96,1.28-1.77,1.28h-5.34c-1.8,0-2.55,2.3-1.09,3.36l4.32,3.14
		c0.65,0.47,0.92,1.31,0.67,2.08l-1.65,5.08c-0.56,1.71,1.4,3.13,2.86,2.08l4.32-3.14c0.65-0.47,1.53-0.47,2.18,0l4.32,3.14
		c1.45,1.06,3.41-0.37,2.86-2.08l-1.65-5.08c-0.25-0.76,0.02-1.6,0.67-2.08l4.32-3.14c1.45-1.06,0.71-3.36-1.09-3.36h-5.34
		c-0.8,0-1.52-0.52-1.77-1.28l-1.65-5.08C163.87,92.31,161.45,92.31,160.9,94.02z"/>
	<g>
		<g>
			<path class="st7" d="M102.73,190.59c0.08,10.3,6.58,19.54,16.27,23.05c9.49,3.44,20.64,0.38,27.03-7.44
				c6.48-7.93,7.48-19.31,2.19-28.15c-5.32-8.89-15.86-13.46-25.99-11.42C110.94,168.91,102.82,179.19,102.73,190.59
				c-0.02,2.57,3.97,2.57,3.99,0c0.06-8.43,5.34-16.3,13.34-19.21c8.18-2.97,17.35-0.48,22.94,6.17c5.51,6.56,6.15,16.25,1.77,23.56
				c-4.36,7.29-13.12,11.26-21.49,9.59c-9.56-1.92-16.49-10.37-16.56-20.11C106.71,188.03,102.71,188.02,102.73,190.59z"/>
		</g>
	</g>
	<g>
		<g>
			<path class="st7" d="M61.5,419.26c0,1.77-1.43,3.2-3.2,3.2c-1.77,0-3.2-1.43-3.2-3.2c0-1.77,1.43-3.2,3.2-3.2
				C60.07,416.06,61.5,417.49,61.5,419.26z"/>
			<path class="st7" d="M107.49,419.26c0,1.77-1.43,3.2-3.2,3.2c-1.77,0-3.2-1.43-3.2-3.2c0-1.77,1.43-3.2,3.2-3.2
				C106.06,416.06,107.49,417.49,107.49,419.26z"/>
			<path class="st7" d="M153.49,419.26c0,1.77-1.43,3.2-3.2,3.2c-1.77,0-3.2-1.43-3.2-3.2c0-1.77,1.43-3.2,3.2-3.2
				C152.05,416.06,153.49,417.49,153.49,419.26z"/>
			<path class="st7" d="M199.48,419.26c0,1.77-1.43,3.2-3.2,3.2c-1.77,0-3.2-1.43-3.2-3.2c0-1.77,1.43-3.2,3.2-3.2
				C198.05,416.06,199.48,417.49,199.48,419.26z"/>
			<path class="st7" d="M245.47,419.26c0,1.77-1.43,3.2-3.2,3.2c-1.77,0-3.2-1.43-3.2-3.2c0-1.77,1.43-3.2,3.2-3.2
				C244.04,416.06,245.47,417.49,245.47,419.26z"/>
		</g>
		<g>
			<path class="st7" d="M87.61,447.51c0,1.77-1.43,3.2-3.2,3.2c-1.77,0-3.2-1.43-3.2-3.2c0-1.77,1.43-3.2,3.2-3.2
				C86.18,444.31,87.61,445.74,87.61,447.51z"/>
			<path class="st7" d="M133.6,447.51c0,1.77-1.43,3.2-3.2,3.2c-1.77,0-3.2-1.43-3.2-3.2c0-1.77,1.43-3.2,3.2-3.2
				C132.17,444.31,133.6,445.74,133.6,447.51z"/>
			<path class="st7" d="M179.6,447.51c0,1.77-1.43,3.2-3.2,3.2c-1.77,0-3.2-1.43-3.2-3.2c0-1.77,1.43-3.2,3.2-3.2
				C178.16,444.31,179.6,445.74,179.6,447.51z"/>
			<path class="st7" d="M225.59,447.51c0,1.77-1.43,3.2-3.2,3.2c-1.77,0-3.2-1.43-3.2-3.2c0-1.77,1.43-3.2,3.2-3.2
				C224.16,444.31,225.59,445.74,225.59,447.51z"/>
			<path class="st7" d="M271.58,447.51c0,1.77-1.43,3.2-3.2,3.2c-1.77,0-3.2-1.43-3.2-3.2c0-1.77,1.43-3.2,3.2-3.2
				C270.15,444.31,271.58,445.74,271.58,447.51z"/>
		</g>
	</g>
	<g>
		<g>
			<path class="st7" d="M651.51,97.91c0,1.77-1.43,3.2-3.2,3.2c-1.77,0-3.2-1.43-3.2-3.2c0-1.77,1.43-3.2,3.2-3.2
				C650.07,94.71,651.51,96.15,651.51,97.91z"/>
			<path class="st7" d="M697.5,97.91c0,1.77-1.43,3.2-3.2,3.2c-1.77,0-3.2-1.43-3.2-3.2c0-1.77,1.43-3.2,3.2-3.2
				C696.07,94.71,697.5,96.15,697.5,97.91z"/>
			<path class="st7" d="M743.49,97.91c0,1.77-1.43,3.2-3.2,3.2c-1.77,0-3.2-1.43-3.2-3.2c0-1.77,1.43-3.2,3.2-3.2
				C742.06,94.71,743.49,96.15,743.49,97.91z"/>
			<path class="st7" d="M789.48,97.91c0,1.77-1.43,3.2-3.2,3.2c-1.77,0-3.2-1.43-3.2-3.2c0-1.77,1.43-3.2,3.2-3.2
				C788.05,94.71,789.48,96.15,789.48,97.91z"/>
			<path class="st7" d="M835.48,97.91c0,1.77-1.43,3.2-3.2,3.2c-1.77,0-3.2-1.43-3.2-3.2c0-1.77,1.43-3.2,3.2-3.2
				C834.04,94.71,835.48,96.15,835.48,97.91z"/>
		</g>
		<g>
			<path class="st7" d="M677.61,126.16c0,1.77-1.43,3.2-3.2,3.2c-1.77,0-3.2-1.43-3.2-3.2c0-1.77,1.43-3.2,3.2-3.2
				C676.18,122.96,677.61,124.39,677.61,126.16z"/>
			<path class="st7" d="M723.61,126.16c0,1.77-1.43,3.2-3.2,3.2c-1.77,0-3.2-1.43-3.2-3.2c0-1.77,1.43-3.2,3.2-3.2
				C722.17,122.96,723.61,124.39,723.61,126.16z"/>
			<path class="st7" d="M769.6,126.16c0,1.77-1.43,3.2-3.2,3.2c-1.77,0-3.2-1.43-3.2-3.2c0-1.77,1.43-3.2,3.2-3.2
				C768.17,122.96,769.6,124.39,769.6,126.16z"/>
			<path class="st7" d="M815.59,126.16c0,1.77-1.43,3.2-3.2,3.2c-1.77,0-3.2-1.43-3.2-3.2c0-1.77,1.43-3.2,3.2-3.2
				C814.16,122.96,815.59,124.39,815.59,126.16z"/>
			<path class="st7" d="M861.59,126.16c0,1.77-1.43,3.2-3.2,3.2c-1.77,0-3.2-1.43-3.2-3.2c0-1.77,1.43-3.2,3.2-3.2
				C860.15,122.96,861.59,124.39,861.59,126.16z"/>
		</g>
	</g>
	<path class="st8" d="M491.52,443.31h-99.37c-7.8,0-14.12-6.32-14.12-14.12v-0.01c0-7.8,6.32-14.12,14.12-14.12h99.37
		c7.8,0,14.12,6.32,14.12,14.12v0.01C505.64,436.99,499.32,443.31,491.52,443.31z"/>
	<g>
		
			<linearGradient id="SVGID_8_" gradientUnits="userSpaceOnUse" x1="1235.9121" y1="365.5097" x2="1031.5592" y2="365.5097" gradientTransform="matrix(0.9898 -0.1423 0.1423 0.9898 -410.5524 56.8491)">
			<stop  offset="0" style="stop-color:#8A72C3"/>
			<stop  offset="1" style="stop-color:#46367A"/>
		</linearGradient>
		<path class="st9" d="M723.73,301.43l93.37-13.42c20.77-2.99,35.19-22.25,32.21-43.02v0c-2.99-20.77-22.25-35.19-43.02-32.21
			l-93.37,13.42c-20.77,2.99-35.19,22.25-32.21,43.02v0C683.69,289.99,702.95,304.41,723.73,301.43z"/>
		
			<linearGradient id="SVGID_9_" gradientUnits="userSpaceOnUse" x1="1135.1221" y1="423.6598" x2="1135.1221" y2="251.9154" gradientTransform="matrix(0.9898 -0.1423 0.1423 0.9898 -410.5524 56.8491)">
			<stop  offset="0.0363" style="stop-color:#1C096E"/>
			<stop  offset="0.2377" style="stop-color:#2B007F"/>
			<stop  offset="0.3748" style="stop-color:#2E0082"/>
			<stop  offset="0.4943" style="stop-color:#39018A"/>
			<stop  offset="0.6073" style="stop-color:#4B0297"/>
			<stop  offset="0.7162" style="stop-color:#6404AA"/>
			<stop  offset="0.8223" style="stop-color:#8507C2"/>
			<stop  offset="0.9247" style="stop-color:#AC09E0"/>
			<stop  offset="1" style="stop-color:#CE0CF9"/>
		</linearGradient>
		<path class="st10" d="M724.1,293.1l90.28-12.98c16.75-2.41,28.37-17.93,25.96-34.68v0c-2.41-16.75-17.93-28.37-34.68-25.96
			l-90.28,12.98c-16.75,2.41-28.37,17.93-25.96,34.68v0C691.83,283.88,707.36,295.5,724.1,293.1z"/>
		<g>
			
				<rect x="733.44" y="225.66" transform="matrix(0.9898 -0.1423 0.1423 0.9898 -28.6815 111.4263)" class="st11" width="62.89" height="61.26"/>
		</g>
		<g>
			<g>
				
					<rect x="707.47" y="250.99" transform="matrix(0.9898 -0.1423 0.1423 0.9898 -30.4374 103.9005)" class="st12" width="7.84" height="27.64"/>
				
					<rect x="697.57" y="260.89" transform="matrix(0.9898 -0.1423 0.1423 0.9898 -30.4393 103.9097)" class="st12" width="27.64" height="7.84"/>
			</g>
		</g>
		<g>
			<g>
				<g>
					<path class="st12" d="M819.98,241.05c0.31,2.14-1.18,4.13-3.32,4.44c-2.14,0.31-4.13-1.18-4.44-3.32
						c-0.31-2.14,1.18-4.13,3.32-4.44C817.69,237.42,819.67,238.91,819.98,241.05z"/>
					<path class="st12" d="M822.28,257.02c0.31,2.14-1.18,4.13-3.32,4.44c-2.14,0.31-4.13-1.18-4.44-3.32
						c-0.31-2.14,1.18-4.13,3.32-4.44S821.97,254.87,822.28,257.02z"/>
				</g>
				<g>
					<path class="st12" d="M825.79,252.33c-2.14,0.31-4.13-1.18-4.44-3.32c-0.31-2.14,1.18-4.13,3.32-4.44
						c2.14-0.31,4.13,1.18,4.44,3.32C829.42,250.03,827.93,252.02,825.79,252.33z"/>
					<path class="st12" d="M809.83,254.62c-2.14,0.31-4.13-1.18-4.44-3.32c-0.31-2.14,1.18-4.13,3.32-4.44
						c2.14-0.31,4.13,1.18,4.44,3.32C813.46,252.33,811.97,254.31,809.83,254.62z"/>
				</g>
			</g>
		</g>
		<g>
			
				<linearGradient id="SVGID_10_" gradientUnits="userSpaceOnUse" x1="1125.8584" y1="315.8257" x2="1151.3102" y2="448.958" gradientTransform="matrix(0.9898 -0.1423 0.1423 0.9898 -410.5524 56.8491)">
				<stop  offset="0" style="stop-color:#8A72C3"/>
				<stop  offset="1" style="stop-color:#46367A"/>
			</linearGradient>
			<polygon class="st13" points="798.36,280.66 739.81,289.08 731.62,232.04 790.16,223.63 			"/>
		</g>
		<g>
			
				<linearGradient id="SVGID_11_" gradientUnits="userSpaceOnUse" x1="1126.4185" y1="319.3421" x2="1150.0856" y2="443.1391" gradientTransform="matrix(0.9898 -0.1423 0.1423 0.9898 -410.5524 56.8491)">
				<stop  offset="0.0363" style="stop-color:#1C096E"/>
				<stop  offset="0.2377" style="stop-color:#2B007F"/>
				<stop  offset="0.3748" style="stop-color:#2E0082"/>
				<stop  offset="0.4943" style="stop-color:#39018A"/>
				<stop  offset="0.6073" style="stop-color:#4B0297"/>
				<stop  offset="0.7162" style="stop-color:#6404AA"/>
				<stop  offset="0.8223" style="stop-color:#8507C2"/>
				<stop  offset="0.9247" style="stop-color:#AC09E0"/>
				<stop  offset="1" style="stop-color:#CE0CF9"/>
			</linearGradient>
			<polygon class="st14" points="795.82,279.09 741.62,286.88 733.99,233.81 788.19,226.02 			"/>
		</g>
		<g>
			<defs>
				
					<rect id="SVGID_12_" x="737.53" y="229.64" transform="matrix(0.9898 -0.1423 0.1423 0.9898 -28.7041 111.4299)" width="54.76" height="53.62"/>
			</defs>
			<clipPath id="SVGID_13_">
				<use xlink:href="#SVGID_12_"  style="overflow:visible;"/>
			</clipPath>
			
				<rect x="745.87" y="197.91" transform="matrix(0.7444 -0.6677 0.6677 0.7444 19.8527 569.3422)" class="st15" width="15.5" height="121.67"/>
			
				<rect x="761.17" y="182" transform="matrix(0.7444 -0.6677 0.6677 0.7444 33.9279 574.3048)" class="st15" width="11.95" height="121.67"/>
		</g>
		<path class="st7" d="M715.81,225.78l90.47-13C806.28,212.78,753.49,227.46,715.81,225.78z"/>
	</g>
	<g>
		<polygon class="st16" points="598.96,409.02 582.47,415.94 563.59,423.87 570.24,439.72 589.13,431.79 605.62,424.87 
			624.5,416.94 617.85,401.09 		"/>
		
			<rect x="572.85" y="403.44" transform="matrix(0.3871 0.922 -0.922 0.3871 741.8548 -291.954)" class="st16" width="35.35" height="17.19"/>
	</g>
	<g>
		<rect x="142.04" y="278.1" class="st16" width="34.08" height="15.27"/>
		<rect x="123.23" y="296.92" class="st16" width="34.08" height="15.27"/>
		
			<rect x="132.63" y="287.51" transform="matrix(-1.836970e-16 1 -1 -1.836970e-16 444.8162 145.4702)" class="st16" width="34.08" height="15.27"/>
	</g>
	<g>
		
			<linearGradient id="SVGID_14_" gradientUnits="userSpaceOnUse" x1="2236.4143" y1="579.5237" x2="2240.0012" y2="661.0478" gradientTransform="matrix(0.8318 -0.555 0.555 0.8318 -1449.251 898.9113)">
			<stop  offset="0.0363" style="stop-color:#1C096E"/>
			<stop  offset="0.2377" style="stop-color:#2B007F"/>
			<stop  offset="0.3748" style="stop-color:#2E0082"/>
			<stop  offset="0.4943" style="stop-color:#39018A"/>
			<stop  offset="0.6073" style="stop-color:#4B0297"/>
			<stop  offset="0.7162" style="stop-color:#6404AA"/>
			<stop  offset="0.8223" style="stop-color:#8507C2"/>
			<stop  offset="0.9247" style="stop-color:#AC09E0"/>
			<stop  offset="1" style="stop-color:#CE0CF9"/>
		</linearGradient>
		<path class="st17" d="M782.47,151.15c-25.03-20.25-41.57-2.35-41.57-2.35s-22.88,8.4-13.79,39.28
			c2.56,8.71,11.79,13.61,20.46,10.93c5.35-1.66,12.06-4.69,20.12-10.06c8.05-5.37,13.43-10.41,17.02-14.71
			C790.51,167.27,789.52,156.86,782.47,151.15z"/>
		
			<linearGradient id="SVGID_15_" gradientUnits="userSpaceOnUse" x1="2249.688" y1="615.1948" x2="2234.9678" y2="595.504" gradientTransform="matrix(0.8318 -0.555 0.555 0.8318 -1449.251 898.9113)">
			<stop  offset="0" style="stop-color:#8A72C3"/>
			<stop  offset="1" style="stop-color:#46367A"/>
		</linearGradient>
		<path class="st18" d="M729.49,166.35c2.53,3.8,11.74,2.09,20.58-3.8c8.83-5.89,13.94-13.75,11.41-17.54
			c-2.53-3.79-11.74-2.09-20.58,3.8C732.07,154.7,726.96,162.56,729.49,166.35z"/>
		
			<linearGradient id="SVGID_16_" gradientUnits="userSpaceOnUse" x1="2255.0393" y1="603.1495" x2="2233.4258" y2="574.2377" gradientTransform="matrix(0.8318 -0.555 0.555 0.8318 -1449.251 898.9113)">
			<stop  offset="0" style="stop-color:#8A72C3"/>
			<stop  offset="1" style="stop-color:#46367A"/>
		</linearGradient>
		<path class="st19" d="M747.82,159.18L747.82,159.18c-1.73,1.15-4.07,0.69-5.23-1.04l-21.8-32.67c-1.16-1.73-0.69-4.07,1.04-5.23
			l0,0c1.73-1.15,4.07-0.69,5.23,1.04l21.8,32.67C750.01,155.68,749.55,158.02,747.82,159.18z"/>
		<g>
			
				<linearGradient id="SVGID_17_" gradientUnits="userSpaceOnUse" x1="2268.5745" y1="584.1667" x2="2214.7686" y2="516.991" gradientTransform="matrix(0.8318 -0.555 0.555 0.8318 -1449.251 898.9113)">
				<stop  offset="0.0363" style="stop-color:#1C096E"/>
				<stop  offset="0.2377" style="stop-color:#2B007F"/>
				<stop  offset="0.3748" style="stop-color:#2E0082"/>
				<stop  offset="0.4943" style="stop-color:#39018A"/>
				<stop  offset="0.6073" style="stop-color:#4B0297"/>
				<stop  offset="0.7162" style="stop-color:#6404AA"/>
				<stop  offset="0.8223" style="stop-color:#8507C2"/>
				<stop  offset="0.9247" style="stop-color:#AC09E0"/>
				<stop  offset="1" style="stop-color:#CE0CF9"/>
			</linearGradient>
			<path class="st20" d="M700.46,121.3c5.63,8.44,17.04,10.72,25.48,5.08c8.44-5.63,10.72-17.04,5.08-25.48
				c-5.63-8.44-17.04-10.72-25.48-5.08C697.11,101.46,694.83,112.86,700.46,121.3z"/>
			<path class="st7" d="M702.17,116.02c3.49,1.93,8.32-0.1,10.77-4.53c2.46-4.44,1.62-9.6-1.87-11.54s-8.32,0.1-10.77,4.53
				C697.84,108.92,698.68,114.08,702.17,116.02z"/>
			<path class="st7" d="M701.48,111c0.97,0.54,2.32-0.03,3.01-1.27c0.69-1.24,0.45-2.68-0.52-3.22c-0.97-0.54-2.32,0.03-3.01,1.27
				C700.27,109.02,700.5,110.46,701.48,111z"/>
			<path class="st7" d="M711.15,97.41c0.14,1.11,1.39,1.86,2.79,1.68c1.41-0.18,2.43-1.21,2.29-2.32c-0.14-1.11-1.39-1.86-2.79-1.68
				C712.03,95.26,711.01,96.3,711.15,97.41z"/>
		</g>
	</g>
</g>
<g id="TEXT" class="st21">
	<g>
		<rect x="57.23" y="38.27" class="st22" width="46.34" height="17.15"/>
		<text transform="matrix(1 0 0 1 65.2276 47.1757)" class="st23 st24 st25">Logo</text>
		<g class="st26">
			<rect x="426.24" y="38.27" class="st27" width="46.34" height="17.15"/>
			<text transform="matrix(1 0 0 1 430.7855 47.1766)" class="st7 st24 st25">Home</text>
			<rect x="493.06" y="38.27" class="st27" width="105.93" height="17.15"/>
			<text transform="matrix(1 0 0 1 525.0413 47.1766)" class="st7 st24 st25">Join us</text>
			<rect x="598.99" y="38.27" class="st27" width="105.93" height="17.15"/>
			<text transform="matrix(1 0 0 1 618.0745 47.1766)" class="st7 st24 st25">Our service</text>
			<rect x="725.73" y="38.27" class="st27" width="105.93" height="17.15"/>
			<text transform="matrix(1 0 0 1 746.2249 47.1766)" class="st7 st24 st25">Contact us</text>
		</g>
	</g>
	<g class="st26">
		<text transform="matrix(1 0 0 1 230.5218 207.5214)" class="st28 st29">retro</text>
		<g>
			
				<linearGradient id="SVGID_18_" gradientUnits="userSpaceOnUse" x1="439.0963" y1="171.4662" x2="439.0963" y2="127.7206" gradientTransform="matrix(1 0 0 1 3.5411 3.5411)">
				<stop  offset="0" style="stop-color:#DA004F"/>
				<stop  offset="1" style="stop-color:#E8B32C"/>
			</linearGradient>
			<path class="st30" d="M234.06,162.93v-37.44h32.09h32.09v5.35v5.35h5.35h5.35v16.04v16.04h-10.7h-10.7v5.35v5.35h5.35h5.35v5.35
				v5.35h5.35h5.35v5.35v5.35h-16.04h-16.04v-5.35v-5.35h-5.35h-5.35v-5.35v-5.35h-5.35h-5.35v10.7v10.7h-10.7h-10.7V162.93z
				 M287.54,146.89v-10.7H271.5h-16.04v16.04v16.04h10.7h10.7v-5.35v-5.35h5.35h5.35V146.89z"/>
			
				<linearGradient id="SVGID_19_" gradientUnits="userSpaceOnUse" x1="439.0963" y1="171.4662" x2="439.0963" y2="127.7206" gradientTransform="matrix(1 0 0 1 3.5411 3.5411)">
				<stop  offset="0" style="stop-color:#DA004F"/>
				<stop  offset="1" style="stop-color:#E8B32C"/>
			</linearGradient>
			<path class="st31" d="M319.63,162.93v-37.44h37.44h37.44v5.35v5.35h-26.74h-26.74v10.7v10.7h21.39h21.39v5.35v5.35h-21.39h-21.39
				v10.7v10.7h26.74h26.74v5.35v5.35h-37.44h-37.44V162.93z"/>
			
				<linearGradient id="SVGID_20_" gradientUnits="userSpaceOnUse" x1="439.0963" y1="171.4662" x2="439.0963" y2="127.7206" gradientTransform="matrix(1 0 0 1 3.5411 3.5411)">
				<stop  offset="0" style="stop-color:#DA004F"/>
				<stop  offset="1" style="stop-color:#E8B32C"/>
			</linearGradient>
			<path class="st32" d="M415.9,130.84v-5.35h32.09h32.09v5.35v5.35h-10.7h-10.7v32.09v32.09h-10.7h-10.7v-32.09v-32.09h-10.7h-10.7
				V130.84z"/>
			
				<linearGradient id="SVGID_21_" gradientUnits="userSpaceOnUse" x1="439.0963" y1="171.4662" x2="439.0963" y2="127.7206" gradientTransform="matrix(1 0 0 1 3.5411 3.5411)">
				<stop  offset="0" style="stop-color:#DA004F"/>
				<stop  offset="1" style="stop-color:#E8B32C"/>
			</linearGradient>
			<path class="st33" d="M490.77,162.93v-37.44h32.09h32.09v5.35v5.35h5.35h5.35v16.04v16.04h-10.7h-10.7v5.35v5.35h5.35h5.35v5.35
				v5.35h5.35h5.35v5.35v5.35H549.6h-16.04v-5.35v-5.35h-5.35h-5.35v-5.35v-5.35h-5.35h-5.35v10.7v10.7h-10.7h-10.7V162.93z
				 M544.25,146.89v-10.7h-16.04h-16.04v16.04v16.04h10.7h10.7v-5.35v-5.35h5.35h5.35V146.89z"/>
			
				<linearGradient id="SVGID_22_" gradientUnits="userSpaceOnUse" x1="439.0963" y1="171.4662" x2="439.0963" y2="127.7206" gradientTransform="matrix(1 0 0 1 3.5411 3.5411)">
				<stop  offset="0" style="stop-color:#DA004F"/>
				<stop  offset="1" style="stop-color:#E8B32C"/>
			</linearGradient>
			<path class="st34" d="M587.04,130.84v-5.35h26.74h26.74v5.35v5.35h5.35h5.35v26.74v26.74h-5.35h-5.35v5.35v5.35h-26.74h-26.74
				v-5.35v-5.35h-5.35h-5.35v-26.74v-26.74h5.35h5.35V130.84z M629.82,162.93v-26.74h-16.04h-16.04v26.74v26.74h16.04h16.04V162.93z
				"/>
		</g>
		<g>
			<linearGradient id="SVGID_23_" gradientUnits="userSpaceOnUse" x1="439.0963" y1="181.4333" x2="439.0963" y2="124.1251">
				<stop  offset="0" style="stop-color:#CE0CF9"/>
				<stop  offset="0.1293" style="stop-color:#CB0CF7"/>
				<stop  offset="0.2183" style="stop-color:#C20CF0"/>
				<stop  offset="0.2952" style="stop-color:#B30CE4"/>
				<stop  offset="0.3653" style="stop-color:#9D0BD3"/>
				<stop  offset="0.4308" style="stop-color:#810BBD"/>
				<stop  offset="0.4928" style="stop-color:#5E0AA2"/>
				<stop  offset="0.5509" style="stop-color:#360983"/>
				<stop  offset="0.5838" style="stop-color:#1C096E"/>
				<stop  offset="0.5853" style="stop-color:#1D0B6F"/>
				<stop  offset="0.6324" style="stop-color:#394290"/>
				<stop  offset="0.681" style="stop-color:#5172AD"/>
				<stop  offset="0.7304" style="stop-color:#669BC5"/>
				<stop  offset="0.7805" style="stop-color:#76BCD9"/>
				<stop  offset="0.8317" style="stop-color:#83D6E8"/>
				<stop  offset="0.8842" style="stop-color:#8DE8F3"/>
				<stop  offset="0.9391" style="stop-color:#92F3FA"/>
				<stop  offset="1" style="stop-color:#94F7FC"/>
			</linearGradient>
			<path class="st35" d="M230.52,159.39v-37.44h32.09h32.09v5.35v5.35h5.35h5.35v16.04v16.04h-10.7H284v5.35v5.35h5.35h5.35v5.35
				v5.35h5.35h5.35v5.35v5.35h-16.04h-16.04v-5.35v-5.35h-5.35h-5.35v-5.35v-5.35h-5.35h-5.35v10.7v10.7h-10.7h-10.7V159.39z
				 M284,143.34v-10.7h-16.04h-16.04v16.04v16.04h10.7h10.7v-5.35v-5.35h5.35H284V143.34z"/>
			<linearGradient id="SVGID_24_" gradientUnits="userSpaceOnUse" x1="439.0963" y1="181.4333" x2="439.0963" y2="124.1251">
				<stop  offset="0" style="stop-color:#CE0CF9"/>
				<stop  offset="0.1293" style="stop-color:#CB0CF7"/>
				<stop  offset="0.2183" style="stop-color:#C20CF0"/>
				<stop  offset="0.2952" style="stop-color:#B30CE4"/>
				<stop  offset="0.3653" style="stop-color:#9D0BD3"/>
				<stop  offset="0.4308" style="stop-color:#810BBD"/>
				<stop  offset="0.4928" style="stop-color:#5E0AA2"/>
				<stop  offset="0.5509" style="stop-color:#360983"/>
				<stop  offset="0.5838" style="stop-color:#1C096E"/>
				<stop  offset="0.5853" style="stop-color:#1D0B6F"/>
				<stop  offset="0.6324" style="stop-color:#394290"/>
				<stop  offset="0.681" style="stop-color:#5172AD"/>
				<stop  offset="0.7304" style="stop-color:#669BC5"/>
				<stop  offset="0.7805" style="stop-color:#76BCD9"/>
				<stop  offset="0.8317" style="stop-color:#83D6E8"/>
				<stop  offset="0.8842" style="stop-color:#8DE8F3"/>
				<stop  offset="0.9391" style="stop-color:#92F3FA"/>
				<stop  offset="1" style="stop-color:#94F7FC"/>
			</linearGradient>
			<path class="st36" d="M316.09,159.39v-37.44h37.44h37.44v5.35v5.35h-26.74h-26.74v10.7v10.7h21.39h21.39v5.35v5.35h-21.39h-21.39
				v10.7v10.7h26.74h26.74v5.35v5.35h-37.44h-37.44V159.39z"/>
			<linearGradient id="SVGID_25_" gradientUnits="userSpaceOnUse" x1="439.0963" y1="181.4333" x2="439.0963" y2="124.1251">
				<stop  offset="0" style="stop-color:#CE0CF9"/>
				<stop  offset="0.1293" style="stop-color:#CB0CF7"/>
				<stop  offset="0.2183" style="stop-color:#C20CF0"/>
				<stop  offset="0.2952" style="stop-color:#B30CE4"/>
				<stop  offset="0.3653" style="stop-color:#9D0BD3"/>
				<stop  offset="0.4308" style="stop-color:#810BBD"/>
				<stop  offset="0.4928" style="stop-color:#5E0AA2"/>
				<stop  offset="0.5509" style="stop-color:#360983"/>
				<stop  offset="0.5838" style="stop-color:#1C096E"/>
				<stop  offset="0.5853" style="stop-color:#1D0B6F"/>
				<stop  offset="0.6324" style="stop-color:#394290"/>
				<stop  offset="0.681" style="stop-color:#5172AD"/>
				<stop  offset="0.7304" style="stop-color:#669BC5"/>
				<stop  offset="0.7805" style="stop-color:#76BCD9"/>
				<stop  offset="0.8317" style="stop-color:#83D6E8"/>
				<stop  offset="0.8842" style="stop-color:#8DE8F3"/>
				<stop  offset="0.9391" style="stop-color:#92F3FA"/>
				<stop  offset="1" style="stop-color:#94F7FC"/>
			</linearGradient>
			<path class="st37" d="M412.36,127.3v-5.35h32.09h32.09v5.35v5.35h-10.7h-10.7v32.09v32.09h-10.7h-10.7v-32.09v-32.09h-10.7h-10.7
				V127.3z"/>
			<linearGradient id="SVGID_26_" gradientUnits="userSpaceOnUse" x1="439.0963" y1="181.4333" x2="439.0963" y2="124.1251">
				<stop  offset="0" style="stop-color:#CE0CF9"/>
				<stop  offset="0.1293" style="stop-color:#CB0CF7"/>
				<stop  offset="0.2183" style="stop-color:#C20CF0"/>
				<stop  offset="0.2952" style="stop-color:#B30CE4"/>
				<stop  offset="0.3653" style="stop-color:#9D0BD3"/>
				<stop  offset="0.4308" style="stop-color:#810BBD"/>
				<stop  offset="0.4928" style="stop-color:#5E0AA2"/>
				<stop  offset="0.5509" style="stop-color:#360983"/>
				<stop  offset="0.5838" style="stop-color:#1C096E"/>
				<stop  offset="0.5853" style="stop-color:#1D0B6F"/>
				<stop  offset="0.6324" style="stop-color:#394290"/>
				<stop  offset="0.681" style="stop-color:#5172AD"/>
				<stop  offset="0.7304" style="stop-color:#669BC5"/>
				<stop  offset="0.7805" style="stop-color:#76BCD9"/>
				<stop  offset="0.8317" style="stop-color:#83D6E8"/>
				<stop  offset="0.8842" style="stop-color:#8DE8F3"/>
				<stop  offset="0.9391" style="stop-color:#92F3FA"/>
				<stop  offset="1" style="stop-color:#94F7FC"/>
			</linearGradient>
			<path class="st38" d="M487.23,159.39v-37.44h32.09h32.09v5.35v5.35h5.35h5.35v16.04v16.04h-10.7h-10.7v5.35v5.35h5.35h5.35v5.35
				v5.35h5.35h5.35v5.35v5.35h-16.04h-16.04v-5.35v-5.35h-5.35h-5.35v-5.35v-5.35h-5.35h-5.35v10.7v10.7h-10.7h-10.7V159.39z
				 M540.71,143.34v-10.7h-16.04h-16.04v16.04v16.04h10.7h10.7v-5.35v-5.35h5.35h5.35V143.34z"/>
			<linearGradient id="SVGID_27_" gradientUnits="userSpaceOnUse" x1="439.0963" y1="181.4333" x2="439.0963" y2="124.1251">
				<stop  offset="0" style="stop-color:#CE0CF9"/>
				<stop  offset="0.1293" style="stop-color:#CB0CF7"/>
				<stop  offset="0.2183" style="stop-color:#C20CF0"/>
				<stop  offset="0.2952" style="stop-color:#B30CE4"/>
				<stop  offset="0.3653" style="stop-color:#9D0BD3"/>
				<stop  offset="0.4308" style="stop-color:#810BBD"/>
				<stop  offset="0.4928" style="stop-color:#5E0AA2"/>
				<stop  offset="0.5509" style="stop-color:#360983"/>
				<stop  offset="0.5838" style="stop-color:#1C096E"/>
				<stop  offset="0.5853" style="stop-color:#1D0B6F"/>
				<stop  offset="0.6324" style="stop-color:#394290"/>
				<stop  offset="0.681" style="stop-color:#5172AD"/>
				<stop  offset="0.7304" style="stop-color:#669BC5"/>
				<stop  offset="0.7805" style="stop-color:#76BCD9"/>
				<stop  offset="0.8317" style="stop-color:#83D6E8"/>
				<stop  offset="0.8842" style="stop-color:#8DE8F3"/>
				<stop  offset="0.9391" style="stop-color:#92F3FA"/>
				<stop  offset="1" style="stop-color:#94F7FC"/>
			</linearGradient>
			<path class="st39" d="M583.49,127.3v-5.35h26.74h26.74v5.35v5.35h5.35h5.35v26.74v26.74h-5.35h-5.35v5.35v5.35h-26.74h-26.74
				v-5.35v-5.35h-5.35h-5.35v-26.74v-26.74h5.35h5.35V127.3z M626.28,159.39v-26.74h-16.04h-16.04v26.74v26.74h16.04h16.04V159.39z"
				/>
		</g>
		<text transform="matrix(1 0 0 1 231.9382 207.5214)" class="st40 st28 st29">retro</text>
		<text transform="matrix(1 0 0 1 230.5218 207.5214)" class="st41 st28 st29">retro</text>
	</g>
</g>
</svg>
